<svg xmlns="http://www.w3.org/2000/svg" version="1.1" xmlns:xlink="http://www.w3.org/1999/xlink" xmlns:svgjs="http://svgjs.dev/svgjs" width="2000" height="1500" viewBox="0 0 2000 1500"><rect width="2000" height="1500" fill="#110f10"></rect><g transform="matrix(0.75,0,0,0.75,249.94598070739562,154.98218623481785)"><svg viewBox="0 0 311 247" data-background-color="#110f10" preserveAspectRatio="xMidYMid meet" height="1588" width="2000" xmlns="http://www.w3.org/2000/svg" xmlns:xlink="http://www.w3.org/1999/xlink"><g id="tight-bounds" transform="matrix(1,0,0,1,0.011199999999973898,-0.09999999999999432)"><svg viewBox="0 0 310.97760000000005 247.2" height="247.2" width="310.97760000000005"><g><svg viewBox="0 0 310.97760000000005 247.2" height="247.2" width="310.97760000000005"><g><svg viewBox="0 0 310.97760000000005 247.2" height="247.2" width="310.97760000000005"><g id="textblocktransform"><svg viewBox="0 0 310.97760000000005 247.2" height="247.2" width="310.97760000000005" id="textblock"><g><svg viewBox="0 0 310.97760000000005 247.2" height="247.2" width="310.97760000000005"><g transform="matrix(1,0,0,1,0,0)"><svg width="310.97760000000005" viewBox="3.05 -25 31.45 25" height="247.2" data-palette-color="#ffffff"><path d="M34.5-0.4L34.5-0.4 34.5 0 22.9 0Q22.7-2.75 22.05-5.9L22.05-5.9Q18.55-2.4 15.05 0L15.05 0 3.4 0Q3.05-2.05 3.05-5.43 3.05-8.8 4.05-12.2L4.05-12.2Q7.65-13.25 10.98-15.75 14.3-18.25 15.8-21.15L15.8-21.15Q14.4-23.35 12.95-25L12.95-25 29.55-25Q34.5-14.15 34.5-0.4ZM21.15-9.55L21.15-9.55Q19.9-13.85 17.75-17.95L17.75-17.95Q15.4-11.05 15.05-4.9L15.05-4.9Q18.75-6.9 21.15-9.55Z" opacity="1" transform="matrix(1,0,0,1,0,0)" fill="#ffffff" class="wordmark-text-0" data-fill-palette-color="primary" id="text-0"></path></svg></g></svg></g></svg></g></svg></g><g></g></svg></g><defs></defs></svg><rect width="310.97760000000005" height="247.2" fill="none" stroke="none" visibility="hidden"></rect></g></svg></g></svg>