<svg width="157" height="82" viewBox="0 0 157 82" fill="none" xmlns="http://www.w3.org/2000/svg">
<g id="Frame">
<g id="Group">
<g id="Clip path group">
<mask id="mask0_1_49" style="mask-type:luminance" maskUnits="userSpaceOnUse" x="0" y="3" width="100" height="75">
<g id="SVGID_2_">
<path id="Vector" d="M92.2803 76.2071C88.5073 47.7231 68.9611 28.9948 33.6416 20.0307C63.3314 20.6862 84.5725 37.1246 97.3649 69.3457C103.701 50.5323 95.2186 31.7274 71.9165 12.948C71.9165 12.948 72.3593 16.1914 73.2451 22.6782C68.5353 15.2295 63.2207 11.3987 57.31 11.1774C57.31 11.1774 58.2724 12.948 60.1887 16.4894C43.7001 2.80072 23.6343 -1.28746e-05 0 8.07869C1.80558 15.0592 7.25637 22.3548 16.3779 29.9738C16.3779 29.9738 14.3083 29.829 10.1862 29.5311C11.8044 32.6042 17.2637 37.7715 26.5641 45.016C26.5641 45.016 24.2049 45.016 19.4866 45.016C21.2326 48.9489 26.8367 52.5584 36.3074 55.8529C36.3074 55.8529 34.2378 55.9976 30.1071 56.2955C33.2499 60.2795 40.0378 63.9656 50.4625 67.3537C50.4625 67.3537 48.6143 67.5751 44.9265 68.0177C57.3015 76.3178 73.0833 79.0504 92.2803 76.2071Z" fill="white"/>
</g>
</mask>
<g mask="url(#mask0_1_49)">
<path id="Vector_2" d="M103.701 0H0V79.0504H103.701V0Z" fill="url(#paint0_linear_1_49)"/>
</g>
</g>
</g>
<g id="Group_2">
<g id="Clip path group_2">
<mask id="mask1_1_49" style="mask-type:luminance" maskUnits="userSpaceOnUse" x="101" y="39" width="56" height="42">
<g id="SVGID_5_">
<path id="Vector_3" d="M105.567 79.5697C107.67 63.6932 118.563 53.2564 138.254 48.2594C121.706 48.6254 109.868 57.7938 102.73 75.7474C99.196 65.2596 103.923 54.7802 116.911 44.3094C116.911 44.3094 116.664 46.1142 116.17 49.7321C118.793 45.5778 121.757 43.4411 125.053 43.3219C125.053 43.3219 124.517 44.3094 123.452 46.2844C132.642 38.6569 143.824 37.099 157 41.6023C155.995 45.4927 152.954 49.5619 147.87 53.8098C147.87 53.8098 149.02 53.7246 151.319 53.5629C150.416 55.274 147.376 58.1513 142.189 62.1949C142.189 62.1949 143.501 62.1949 146.132 62.1949C145.162 64.3827 142.036 66.4003 136.755 68.2391C136.755 68.2391 137.905 68.3242 140.213 68.4859C138.459 70.7078 134.677 72.7594 128.869 74.6493C128.869 74.6493 129.899 74.7684 131.952 75.0153C125.062 79.6293 116.264 81.1531 105.567 79.5697Z" fill="white"/>
</g>
</mask>
<g mask="url(#mask1_1_49)">
<path id="Vector_4" d="M157 37.0905H99.196V81.1446H157V37.0905Z" fill="url(#paint1_linear_1_49)"/>
</g>
</g>
</g>
<g id="Group_3">
<g id="Clip path group_3">
<mask id="mask2_1_49" style="mask-type:luminance" maskUnits="userSpaceOnUse" x="99" y="18" width="24" height="31">
<g id="SVGID_8_">
<path id="Vector_5" d="M105.073 48.2764C102.688 39.9679 105.831 32.451 114.492 25.7429C106.384 29.4885 102.501 36.5797 102.841 46.9995C98.8298 42.5728 98.9149 36.3669 103.08 28.3904C103.08 28.3904 103.344 29.3353 103.88 31.2337C104.281 28.6117 105.286 26.9176 106.895 26.1515C106.895 26.1515 106.844 26.7559 106.742 27.9647C109.646 22.21 114.841 19.0262 122.336 18.4218C122.677 20.5671 122.047 23.2316 120.454 26.4239C120.454 26.4239 121.008 26.1345 122.106 25.5556C122.03 26.6027 121.144 28.6798 119.449 31.7955C119.449 31.7955 120.096 31.5146 121.399 30.9442C121.391 32.2382 120.284 33.9067 118.061 35.9498C118.061 35.9498 118.649 35.7455 119.824 35.3284C119.432 36.8011 118.01 38.6313 115.54 40.8191C115.54 40.8191 116.076 40.6574 117.15 40.3339C114.731 44.1051 110.702 46.7526 105.073 48.2764Z" fill="white"/>
</g>
</mask>
<g mask="url(#mask2_1_49)">
<path id="Vector_6" d="M122.668 18.4048H98.8298V48.2764H122.668V18.4048Z" fill="url(#paint2_linear_1_49)"/>
</g>
</g>
</g>
</g>
<defs>
<linearGradient id="paint0_linear_1_49" x1="89.0493" y1="67.8662" x2="31.8144" y2="24.2142" gradientUnits="userSpaceOnUse">
<stop stop-color="#018D43"/>
<stop offset="1" stop-color="#87BD40"/>
</linearGradient>
<linearGradient id="paint1_linear_1_49" x1="107.368" y1="74.9199" x2="139.268" y2="50.592" gradientUnits="userSpaceOnUse">
<stop stop-color="#018D43"/>
<stop offset="1" stop-color="#87BD40"/>
</linearGradient>
<linearGradient id="paint2_linear_1_49" x1="104.168" y1="45.1458" x2="114.707" y2="26.2366" gradientUnits="userSpaceOnUse">
<stop stop-color="#018D43"/>
<stop offset="1" stop-color="#87BD40"/>
</linearGradient>
</defs>
</svg>
